PathFileType	4	(X/Y/Z)	C:/Users/opensim2020/Desktop/walking_exp_matlab/subject06_walking22_straight_02.trc	
DataRate	CameraRate	NumFrames	NumMarkers	Units	OrigDataRate	OrigDataStartFrame	OrigNumFrames	
100.00	100.00	4	44	mm	100.00	1259	81	
Frame#	Time	LFHD			RFHD			LBHD			RBHD			C7			T10			CLAV			STRN			RBAK			LSHO			LUPA			LELB			LFRM			LWRA			LWRB			LFIN			RSHO			RUPA			RELB			RFRM			RWRA			RWRB			RFIN			LASI			RASI			LPSI			RPSI			LTHI			LKNE			LTIB			LANK			LHEE			LTOE			RTHI			RKNE			RTIB			RANK			RHEE			RTOE			*39			*40			*41			*42			*43			
		X1	Y1	Z1	X2	Y2	Z2	X3	Y3	Z3	X4	Y4	Z4	X5	Y5	Z5	X6	Y6	Z6	X7	Y7	Z7	X8	Y8	Z8	X9	Y9	Z9	X10	Y10	Z10	X11	Y11	Z11	X12	Y12	Z12	X13	Y13	Z13	X14	Y14	Z14	X15	Y15	Z15	X16	Y16	Z16	X17	Y17	Z17	X18	Y18	Z18	X19	Y19	Z19	X20	Y20	Z20	X21	Y21	Z21	X22	Y22	Z22	X23	Y23	Z23	X24	Y24	Z24	X25	Y25	Z25	X26	Y26	Z26	X27	Y27	Z27	X28	Y28	Z28	X29	Y29	Z29	X30	Y30	Z30	X31	Y31	Z31	X32	Y32	Z32	X33	Y33	Z33	X34	Y34	Z34	X35	Y35	Z35	X36	Y36	Z36	X37	Y37	Z37	X38	Y38	Z38	X39	Y39	Z39	X40	Y40	Z40	X41	Y41	Z41	X42	Y42	Z42	X43	Y43	Z43	X44	Y44	Z44	

1	0.000	-899.44958	763.76434	1622.19128	-1032.30774	766.90454	1618.14844	-900.07452	899.18457	1572.60217	-1029.63098	900.15009	1573.53882	-950.94562	906.89752	1419.84082	-963.38745	961.03406	1093.87317	-971.09308	802.63629	1336.42322	-969.25000	773.98535	1158.58472	-1011.54919	1002.90332	1254.95605	-802.13568	828.34552	1370.85583	-730.75708	793.13513	1172.81592	-718.20483	767.74658	1062.82483	-721.23932	661.91925	957.93024	-790.66699	554.55878	916.08978	-748.91333	586.86017	869.19232	-764.43109	502.87027	841.45074	-1120.37793	879.05994	1373.84338	-1193.24011	994.76221	1207.94507	-1213.50439	1033.51880	1093.18884	-1238.65906	1068.99109	979.21857	-1231.76318	1060.79065	824.52325	-1254.30542	1119.44128	850.87640	-1265.22278	1117.82935	765.91644	-870.26581	793.20050	915.94824	-1091.18530	796.91974	933.46246	-896.35950	948.69415	960.40942	-1065.19165	946.66132	964.45837	-833.87994	930.37128	618.06537	-865.18414	983.49695	462.36295	-888.21320	1118.21558	239.88535	-947.24115	1189.60425	86.85886	-991.25775	1234.36987	88.15878	-955.18488	1057.62598	32.69102	-1170.14368	780.15326	617.29724	-1142.84668	716.58087	509.15277	-1142.46301	682.26227	252.18637	-1102.85742	629.53705	71.60659	-1053.13281	653.22290	38.68713	-1118.28784	472.26913	71.54069	-954.99646	863.79437	1666.76794												 
2	0.010	-901.19977	748.26569	1620.55640	-1034.06885	751.48419	1616.32251	-901.67841	883.63062	1570.77271	-1031.05969	884.50989	1571.51526	-952.38458	891.30823	1417.90405	-964.36115	945.22003	1091.91016	-972.34692	786.80249	1334.57751	-970.29803	758.19684	1156.68762	-1012.62817	986.98682	1252.61548	-803.55414	812.63379	1369.22900	-731.98242	777.31598	1171.37354	-719.52808	751.54230	1061.63892	-722.98438	643.69135	959.17529	-792.78510	535.56903	920.46643	-751.30530	566.54376	872.51288	-766.81323	481.88855	847.26855	-1121.73669	863.46954	1371.84644	-1194.49072	979.73389	1206.35071	-1215.02625	1018.62842	1091.64941	-1240.42871	1054.64807	977.94781	-1233.63843	1046.81677	823.09998	-1256.31409	1105.79236	849.94684	-1267.44238	1104.83252	765.03754	-870.84003	777.84131	914.23047	-1091.81396	779.98480	931.87231	-898.14374	933.44000	958.37439	-1067.06689	929.79974	962.58307	-834.30688	916.97430	617.02197	-865.19312	971.26807	461.48248	-887.46918	1111.55054	242.15863	-945.70062	1187.32446	91.00771	-989.26923	1232.16370	93.80261	-955.04773	1057.20996	32.76947	-1171.02051	761.35486	617.09570	-1142.46484	700.51068	507.97864	-1141.15027	660.98553	250.46819	-1101.46643	603.80896	71.50959	-1051.67712	626.80023	38.15424	-1116.36902	446.63391	75.49786	-956.76587	848.38739	1664.89038												 
3	0.020	-902.98114	732.85651	1619.19580	-1035.86682	736.08362	1614.82703	-903.40698	868.01086	1569.17590	-1032.68396	868.79163	1569.72021	-953.93219	875.53979	1416.29919	-965.27051	929.42572	1090.24585	-973.77893	770.78265	1333.04053	-971.37946	742.17432	1155.12158	-1013.70728	970.93036	1250.58386	-805.06531	796.79095	1367.87695	-733.25903	761.55389	1170.12976	-720.79364	735.30524	1060.61011	-724.61963	626.09393	960.36188	-794.79639	517.39935	924.40112	-753.67517	547.12805	875.56738	-769.13513	461.79279	852.66553	-1123.22351	847.70605	1370.06702	-1195.62634	964.55457	1204.81128	-1216.69385	1003.55664	1090.13794	-1242.39246	1039.70398	976.73358	-1236.18567	1032.80774	821.85492	-1258.41370	1091.35620	848.95319	-1269.74133	1090.84180	764.09680	-871.29907	762.29553	912.75183	-1092.55579	762.74255	930.62781	-899.85028	917.76733	956.44287	-1068.61975	913.34930	961.16705	-834.77838	902.80035	616.10577	-865.12280	957.95752	460.60602	-886.52466	1104.12769	244.91719	-943.82916	1184.71301	95.88389	-987.06531	1229.36597	100.29961	-955.03180	1056.87854	32.53448	-1171.29712	742.48804	616.99915	-1142.11035	684.58893	506.73959	-1140.11353	640.62738	249.13075	-1099.89514	581.21429	71.05503	-1050.19678	603.98615	37.59258	-1113.85474	423.90408	77.47122	-958.59705	833.02356	1663.26904												 
4	0.030	-904.67822	717.52722	1618.32349	-1037.61377	720.50861	1613.69067	-905.09039	852.46216	1567.87170	-1034.77808	853.42505	1568.23206	-955.61658	859.58606	1415.04565	-966.08752	913.08221	1088.83789	-975.31561	753.67523	1332.12561	-972.50665	725.94202	1153.90637	-1014.92395	954.73230	1248.98413	-806.66174	780.83850	1366.74487	-734.62262	745.91809	1169.19531	-722.18677	719.76935	1059.85071	-726.18103	609.14807	961.47754	-796.59564	499.95810	927.96320	-755.55420	528.65765	878.33698	-771.26141	442.81311	857.48639	-1124.76440	831.68353	1368.58667	-1197.19629	948.73688	1203.39966	-1218.41309	987.81140	1088.84473	-1244.18652	1024.18530	975.49731	-1238.67883	1017.42755	820.51593	-1260.51355	1076.29578	847.95587	-1272.20129	1076.06409	763.23962	-871.75775	746.32092	911.60773	-1093.29321	745.09283	929.85779	-901.56470	901.74292	954.69745	-1070.08154	896.24121	959.91632	-835.29590	887.61816	615.17310	-865.10382	943.38629	459.68158	-885.64923	1095.70483	247.98230	-941.25085	1181.47620	101.43208	-984.76276	1225.92200	107.90359	-954.64612	1056.25732	32.51746	-1171.16174	724.14746	616.69366	-1142.01367	668.31915	505.75540	-1139.36731	621.51422	247.80544	-1098.20239	561.93896	70.08607	-1048.82776	584.94104	36.68355	-1110.61499	404.26410	77.52626	-960.47003	817.66370	1661.96338												 
